<svg width="20" height="20" viewBox="0 0 20 20" fill="none" xmlns="http://www.w3.org/2000/svg">
<g clip-path="url(#clip0_25_14)">
<path d="M9.99996 1.66663C8.35179 1.66663 6.74062 2.15537 5.37021 3.07105C3.9998 3.98672 2.9317 5.28821 2.30097 6.81093C1.67024 8.33365 1.50521 10.0092 1.82675 11.6257C2.1483 13.2422 2.94197 14.7271 4.10741 15.8925C5.27284 17.058 6.7577 17.8516 8.37421 18.1732C9.99072 18.4947 11.6663 18.3297 13.189 17.699C14.7117 17.0682 16.0132 16.0001 16.9289 14.6297C17.8446 13.2593 18.3333 11.6481 18.3333 9.99996C18.3333 8.90561 18.1177 7.82198 17.699 6.81093C17.2802 5.79988 16.6663 4.88122 15.8925 4.1074C15.1187 3.33358 14.2 2.71975 13.189 2.30096C12.1779 1.88217 11.0943 1.66663 9.99996 1.66663ZM9.99996 16.6666C8.68142 16.6666 7.39249 16.2756 6.29616 15.5431C5.19983 14.8105 4.34535 13.7694 3.84077 12.5512C3.33618 11.333 3.20416 9.99256 3.46139 8.69936C3.71863 7.40615 4.35357 6.21826 5.28592 5.28591C6.21827 4.35356 7.40615 3.71863 8.69936 3.46139C9.99257 3.20416 11.333 3.33618 12.5512 3.84076C13.7694 4.34535 14.8105 5.19983 15.5431 6.29616C16.2756 7.39249 16.6666 8.68142 16.6666 9.99996C16.6666 11.7681 15.9643 13.4638 14.714 14.714C13.4638 15.9642 11.7681 16.6666 9.99996 16.6666Z" fill="white"/>
<path d="M12.25 6.99165L9.09999 11.1583L7.74166 9.39998C7.67436 9.31353 7.59068 9.24118 7.49542 9.18706C7.40016 9.13295 7.29517 9.09812 7.18644 9.08458C7.07772 9.07104 6.9674 9.07904 6.86177 9.10814C6.75614 9.13723 6.65728 9.18685 6.57083 9.25415C6.48437 9.32145 6.41202 9.40513 6.3579 9.50039C6.30379 9.59565 6.26896 9.70064 6.25542 9.80937C6.24188 9.91809 6.24988 10.0284 6.27898 10.134C6.30807 10.2397 6.35769 10.3385 6.42499 10.425L8.44999 13.0167C8.52847 13.116 8.62854 13.1961 8.74261 13.251C8.85668 13.3058 8.98175 13.334 9.10833 13.3333C9.23559 13.333 9.36109 13.3036 9.47521 13.2472C9.58933 13.1909 9.68903 13.1092 9.76666 13.0083L13.575 8.00832C13.7098 7.83151 13.7689 7.60838 13.7392 7.38803C13.7095 7.16767 13.5935 6.96814 13.4167 6.83332C13.2398 6.6985 13.0167 6.63944 12.7964 6.66913C12.576 6.69883 12.3765 6.81484 12.2417 6.99165H12.25Z" fill="white"/>
</g>
<defs>
<clipPath id="clip0_25_14">
<rect width="20" height="20" fill="white"/>
</clipPath>
</defs>
</svg>
