<svg width="194" height="508" viewBox="0 0 194 508" fill="none" xmlns="http://www.w3.org/2000/svg">
<g filter="url(#filter0_d_6_3)">
<path d="M83.5991 0.78125C82.935 1.40625 82.7397 2.03125 82.7397 3.4375C82.7397 5.39062 82.2709 6.25 81.1381 6.25C80.2397 6.25 80.0444 6.64062 79.6928 8.67188C79.4194 10.1172 79.2631 10.3516 78.1303 10.5859C76.06 11.0156 75.7084 11.5234 75.7084 14.4141C75.7084 15.8203 75.8647 17.2266 76.06 17.5391C76.2553 17.8125 77.1928 18.125 78.1694 18.2422C79.7709 18.4375 80.0834 18.6328 81.3334 20.4688C82.2319 21.7578 82.7397 22.9688 82.7397 23.75C82.7397 24.6484 83.0131 25.1562 83.7162 25.625C85.0053 26.4453 84.9662 27.3047 83.4819 30.4297C82.2709 32.9688 82.2319 32.9688 81.8803 31.9141C81.3334 30.3516 80.9037 30.8984 80.3569 34.0234C79.8881 36.6016 79.9272 36.875 80.5522 37.3438C81.2162 37.8125 81.2162 38.0078 80.4741 41.4062C80.0444 43.3594 79.5756 45.0781 79.4194 45.2344C79.185 45.5078 78.2475 44.4922 77.935 43.5938C77.8569 43.3594 77.6225 43.2812 77.4272 43.4766C77.2709 43.6328 77.5053 45.1172 78.0131 46.7969C78.5209 48.4375 78.9897 50.7812 79.1069 51.9531C79.3022 54.2578 79.6537 55.1953 80.9037 56.5234C81.7631 57.5 81.7631 57.2656 80.3959 113.477C80.2006 121.641 79.8491 136.836 79.6147 147.266C79.2241 164.102 79.1069 166.289 78.5209 166.797C78.1694 167.148 77.0366 168.633 76.0209 170.117C72.4662 175.43 66.4116 180.82 55.3959 188.477C34.3803 203.086 28.6772 207.891 22.5834 215.938C16.8022 223.633 13.3256 234.258 12.935 245.664C12.6616 252.734 13.0912 256.211 15.0444 263.281C15.7866 265.977 17.0756 270.781 17.8959 274.023L19.3412 279.883L21.8412 280.156C26.4116 280.664 29.4975 282.266 32.5444 285.586C38.6381 292.383 40.1616 305.078 36.8412 321.68C35.7475 327.07 34.4975 331.172 33.6772 332.031C33.2475 332.461 31.4897 332.734 26.5678 333.008L20.0444 333.398L19.9272 335.078C19.8491 336.289 19.185 337.773 17.6616 340.312C16.4506 342.305 15.5912 344.102 15.7475 344.453C15.9037 344.922 16.5678 345 19.1069 344.844C21.4897 344.688 22.0756 344.766 21.5287 345.078C21.0991 345.352 18.56 345.508 15.2787 345.508H9.69281L9.30219 346.484C7.42719 351.211 3.59906 369.297 2.11469 380.469C-0.463439 399.492 -0.619689 407.305 1.29437 415.82C8.52094 447.812 38.3256 470.547 76.0991 472.891C78.8334 473.047 80.7475 473.359 81.06 473.672C81.3334 473.945 82.4662 474.453 83.5991 474.844C85.9037 475.586 87.7006 476.758 88.0131 477.734C88.1303 478.086 88.7553 482.461 89.3803 487.461C90.435 495.625 90.5131 496.641 89.9662 497.383C89.6537 497.852 89.3803 498.633 89.3803 499.102C89.3803 499.922 89.5756 500 91.1381 500C92.7006 500 92.8959 499.883 92.8959 499.141C92.8959 498.672 92.5053 497.891 92.0366 497.383L91.2162 496.484L92.31 487.812C92.8959 483.008 93.5991 478.672 93.8334 478.125C94.1069 477.578 95.3959 476.562 97.1928 475.586C98.7944 474.727 100.552 473.75 101.099 473.398C101.841 472.891 103.443 472.695 107.935 472.539C134.966 471.484 159.576 458.75 173.13 438.75C178.794 430.391 182.232 420.664 183.169 410.273C183.56 405.859 183.521 404.297 182.779 396.875C181.841 387.5 181.138 382.5 179.966 376.758C178.247 368.164 175.435 358.242 172.388 349.961L170.591 345.078L164.654 345.117C158.951 345.117 158.638 345.078 156.372 344.023C152.974 342.422 150.201 340.195 148.169 337.344C143.521 330.82 140.943 321.562 140.943 311.328C140.943 293.555 146.724 282.93 158.443 279.102C159.576 278.75 160.63 278.164 160.826 277.773C161.568 276.406 164.732 263.945 165.396 259.883C167.466 246.641 162.974 227.305 155.474 217.031C149.576 208.984 143.287 203.672 126.177 192.227C115.279 184.922 110.708 181.484 106.49 177.422C103.169 174.219 100.044 170.117 99.185 167.852C98.9506 167.266 98.5209 166.797 98.2084 166.797C97.3881 166.797 97.31 165.977 96.4116 141.797C95.9819 129.883 95.435 116.25 95.2397 111.523C95.0444 106.797 94.4975 92.8516 94.0287 80.5469L93.1303 58.1641L94.6147 56.9531C96.6069 55.3125 97.1928 53.7891 97.1928 50.0391C97.1928 47.8125 97.4272 46.3281 97.9741 44.9219C98.9897 42.3828 98.9506 42.1094 97.7787 42.4219C97.2319 42.5391 96.8022 42.5781 96.8022 42.5C96.8022 41.9922 95.9037 37.3047 95.3959 35.0781C95.0444 33.6328 94.8491 32.2656 94.9272 32.0312C95.0053 31.7969 95.6303 32.1484 96.3725 32.8125C97.935 34.3359 98.3647 34.1016 97.2709 32.3438C96.2162 30.6641 94.8881 29.4141 93.2475 28.5938C91.6069 27.7734 91.2944 26.4453 92.5834 25.7422C93.7944 25.1172 94.0678 24.6484 94.0678 23.2031C94.0678 22.5 94.4975 21.2109 95.0444 20.2734C95.7475 18.9844 96.3334 18.4766 97.4662 18.1641L98.9506 17.7344V14.4531V11.1719L97.7006 10.7812C96.6459 10.5078 96.4116 10.2344 96.4116 9.33594C96.4116 7.69531 95.7866 6.36719 94.8881 6.13281C94.185 5.97656 94.0678 5.625 94.0678 3.82812C94.0678 2.10938 93.9116 1.52344 93.1694 0.859375C92.3491 0.078125 91.8412 0 88.3647 0C84.9662 0 84.3412 0.117188 83.5991 0.78125Z" fill="black" fill-opacity="0.51" shape-rendering="crispEdges"/>
</g>
<g filter="url(#filter1_d_6_3)">
<path d="M147.193 332.188C147.193 333.359 152.388 340.039 154.536 341.602C155.63 342.383 157.232 343.125 158.482 343.398C160.591 343.828 167.232 343.789 167.701 343.281C167.857 343.164 166.841 341.484 165.435 339.57C163.599 337.031 162.896 335.664 162.701 334.453C162.583 333.516 162.427 332.695 162.349 332.617C162.076 332.344 147.193 331.953 147.193 332.188Z" fill="black" fill-opacity="0.51" shape-rendering="crispEdges"/>
</g>
<defs>
<filter id="filter0_d_6_3" x="0" y="0" width="193.414" height="508" filterUnits="userSpaceOnUse" color-interpolation-filters="sRGB">
<feFlood flood-opacity="0" result="BackgroundImageFix"/>
<feColorMatrix in="SourceAlpha" type="matrix" values="0 0 0 0 0 0 0 0 0 0 0 0 0 0 0 0 0 0 127 0" result="hardAlpha"/>
<feOffset dx="6" dy="4"/>
<feGaussianBlur stdDeviation="2"/>
<feComposite in2="hardAlpha" operator="out"/>
<feColorMatrix type="matrix" values="0 0 0 0 0 0 0 0 0 0 0 0 0 0 0 0 0 0 0.25 0"/>
<feBlend mode="normal" in2="BackgroundImageFix" result="effect1_dropShadow_6_3"/>
<feBlend mode="normal" in="SourceGraphic" in2="effect1_dropShadow_6_3" result="shape"/>
</filter>
<filter id="filter1_d_6_3" x="147.193" y="332.116" width="28.5237" height="19.5782" filterUnits="userSpaceOnUse" color-interpolation-filters="sRGB">
<feFlood flood-opacity="0" result="BackgroundImageFix"/>
<feColorMatrix in="SourceAlpha" type="matrix" values="0 0 0 0 0 0 0 0 0 0 0 0 0 0 0 0 0 0 127 0" result="hardAlpha"/>
<feOffset dx="4" dy="4"/>
<feGaussianBlur stdDeviation="2"/>
<feComposite in2="hardAlpha" operator="out"/>
<feColorMatrix type="matrix" values="0 0 0 0 0 0 0 0 0 0 0 0 0 0 0 0 0 0 0.25 0"/>
<feBlend mode="normal" in2="BackgroundImageFix" result="effect1_dropShadow_6_3"/>
<feBlend mode="normal" in="SourceGraphic" in2="effect1_dropShadow_6_3" result="shape"/>
</filter>
</defs>
</svg>
