<svg width="27" height="20" viewBox="0 0 27 20" fill="none" xmlns="http://www.w3.org/2000/svg">
<g clip-path="url(#clip0_37_2)">
<path d="M1.81818 20H6.06061V9.69697L0 5.15151V18.1818C0 19.1879 0.815152 20 1.81818 20Z" fill="#4285F4"/>
<path d="M20.606 20H24.8484C25.8544 20 26.6666 19.1848 26.6666 18.1818V5.15151L20.606 9.69697" fill="#34A853"/>
<path d="M20.606 1.81818V9.69697L26.6666 5.15152V2.72727C26.6666 0.478788 24.0999 -0.80303 22.3029 0.545455" fill="#FBBC04"/>
<path d="M6.06055 9.69697V1.81818L13.3333 7.27273L20.606 1.81818V9.69697L13.3333 15.1515" fill="#EA4335"/>
<path d="M0 2.72727V5.15152L6.06061 9.69697V1.81818L4.36364 0.545455C2.56364 -0.80303 0 0.478788 0 2.72727Z" fill="#C5221F"/>
</g>
<defs>
<clipPath id="clip0_37_2">
<rect width="26.6667" height="20" fill="white"/>
</clipPath>
</defs>
</svg>
