<svg width="59" height="59" viewBox="0 0 59 59" fill="none" xmlns="http://www.w3.org/2000/svg">
<g filter="url(#filter0_d_16_13)">
<circle cx="28.5" cy="28.5" r="27.5" fill="white"/>
</g>
<path d="M28.4884 2.54688C28.4157 2.61105 28.3943 2.67521 28.3943 2.81959C28.3943 3.02011 28.343 3.10834 28.2189 3.10834C28.1205 3.10834 28.0991 3.14844 28.0606 3.35698C28.0307 3.50537 28.0136 3.52943 27.8895 3.55349C27.6628 3.59761 27.6243 3.64974 27.6243 3.94651C27.6243 4.09089 27.6414 4.23526 27.6628 4.26735C27.6842 4.29542 27.7868 4.3275 27.8938 4.33954C28.0692 4.35959 28.1034 4.37964 28.2403 4.56813C28.3387 4.70047 28.3943 4.8248 28.3943 4.905C28.3943 4.99724 28.4242 5.04938 28.5012 5.0975C28.6424 5.18172 28.6381 5.26995 28.4756 5.59079C28.343 5.85146 28.3387 5.85146 28.3002 5.74318C28.2403 5.58276 28.1932 5.63891 28.1333 5.95974C28.082 6.22443 28.0863 6.2525 28.1547 6.30063C28.2275 6.34875 28.2275 6.36881 28.1462 6.71771C28.0991 6.91823 28.0478 7.09469 28.0307 7.11073C28.005 7.13881 27.9023 7.03454 27.8681 6.9423C27.8596 6.91823 27.8339 6.91021 27.8125 6.93026C27.7954 6.94631 27.8211 7.0987 27.8767 7.27115C27.9323 7.43959 27.9836 7.68021 27.9965 7.80053C28.0178 8.03714 28.0563 8.13339 28.1932 8.26974C28.2873 8.37 28.2873 8.34594 28.1376 14.1169C28.1162 14.9551 28.0777 16.5152 28.0521 17.5859C28.0093 19.3144 27.9965 19.539 27.9323 19.5911C27.8938 19.6272 27.7697 19.7796 27.6585 19.932C27.2692 20.4775 26.6062 21.0309 25.3998 21.8169C23.0984 23.3168 22.4738 23.8101 21.8065 24.6363C21.1734 25.4263 20.7927 26.5171 20.7499 27.6882C20.72 28.4141 20.767 28.771 20.9809 29.4969C21.0622 29.7736 21.2033 30.2669 21.2932 30.5997L21.4515 31.2013L21.7252 31.2294C22.2257 31.2815 22.5637 31.4459 22.8973 31.7868C23.5647 32.4846 23.7315 33.788 23.3679 35.4925C23.2481 36.0459 23.1112 36.467 23.0214 36.5552C22.9743 36.5993 22.7818 36.6274 22.2428 36.6555L21.5285 36.6956L21.5156 36.868C21.5071 36.9923 21.4343 37.1447 21.2675 37.4054C21.1349 37.61 21.0408 37.7944 21.0579 37.8305C21.075 37.8786 21.1477 37.8867 21.4258 37.8706C21.6867 37.8546 21.7509 37.8626 21.691 37.8947C21.644 37.9228 21.3659 37.9388 21.0066 37.9388H20.3948L20.3521 38.0391C20.1467 38.5243 19.7275 40.3811 19.565 41.5281C19.2826 43.4812 19.2655 44.2833 19.4751 45.1576C20.2665 48.4421 23.5305 50.7761 27.6671 51.0168C27.9665 51.0328 28.1761 51.0649 28.2103 51.097C28.2403 51.1251 28.3643 51.1772 28.4884 51.2173C28.7408 51.2935 28.9376 51.4138 28.9718 51.5141C28.9846 51.5502 29.0531 51.9993 29.1215 52.5127C29.237 53.3508 29.2456 53.4551 29.1857 53.5313C29.1515 53.5794 29.1215 53.6596 29.1215 53.7078C29.1215 53.792 29.1429 53.8 29.314 53.8C29.4851 53.8 29.5065 53.788 29.5065 53.7118C29.5065 53.6636 29.4637 53.5834 29.4124 53.5313L29.3226 53.4391L29.4423 52.5488C29.5065 52.0555 29.5835 51.6103 29.6092 51.5542C29.6391 51.498 29.7803 51.3938 29.9771 51.2935C30.1525 51.2053 30.345 51.105 30.4048 51.0689C30.4861 51.0168 30.6615 50.9967 31.1535 50.9807C34.1137 50.8724 36.8087 49.565 38.2931 47.5117C38.9133 46.6534 39.2898 45.6548 39.3925 44.5881C39.4352 44.1349 39.431 43.9745 39.3497 43.2125C39.247 42.25 39.17 41.7367 39.0417 41.1471C38.8535 40.2648 38.5455 39.2462 38.2118 38.396L38.015 37.8947L37.3648 37.8987C36.7402 37.8987 36.706 37.8947 36.4579 37.7864C36.0857 37.622 35.782 37.3934 35.5596 37.1006C35.0505 36.4309 34.7682 35.4804 34.7682 34.4297C34.7682 32.605 35.4013 31.5141 36.6846 31.1211C36.8087 31.085 36.9242 31.0248 36.9456 30.9847C37.0268 30.8444 37.3733 29.5651 37.4461 29.148C37.6728 27.7884 37.1808 25.8033 36.3595 24.7485C35.7136 23.9224 35.0248 23.377 33.1512 22.2019C31.9577 21.452 31.4572 21.0991 30.9952 20.682C30.6316 20.3531 30.2893 19.932 30.1952 19.6994C30.1696 19.6393 30.1225 19.5911 30.0883 19.5911C29.9985 19.5911 29.9899 19.5069 29.8915 17.0245C29.8445 15.8013 29.7846 14.4017 29.7632 13.9164C29.7418 13.4311 29.6819 11.9994 29.6306 10.7361L29.5322 8.43818L29.6947 8.31386C29.9129 8.14542 29.9771 7.98901 29.9771 7.60401C29.9771 7.37542 30.0027 7.22303 30.0626 7.07865C30.1738 6.81797 30.1696 6.7899 30.0412 6.82198C29.9813 6.83401 29.9343 6.83803 29.9343 6.83C29.9343 6.77787 29.8359 6.29662 29.7803 6.06803C29.7418 5.91964 29.7204 5.77928 29.729 5.75521C29.7375 5.73115 29.806 5.76724 29.8872 5.83542C30.0583 5.99183 30.1054 5.96776 29.9856 5.7873C29.8701 5.61485 29.7247 5.48651 29.545 5.4023C29.3653 5.31808 29.3311 5.18172 29.4723 5.10954C29.6049 5.04537 29.6348 4.99724 29.6348 4.84886C29.6348 4.77667 29.6819 4.64433 29.7418 4.54808C29.8188 4.41573 29.883 4.3636 30.007 4.33151L30.1696 4.2874V3.95053V3.61365L30.0327 3.57355C29.9172 3.54547 29.8915 3.5174 29.8915 3.42516C29.8915 3.25672 29.8231 3.12037 29.7247 3.09631C29.6477 3.08026 29.6348 3.04417 29.6348 2.85969C29.6348 2.68323 29.6177 2.62308 29.5365 2.5549C29.4466 2.47469 29.391 2.46667 29.0103 2.46667C28.6381 2.46667 28.5697 2.4787 28.4884 2.54688Z" fill="black"/>
<path d="M35.4526 36.5712C35.4526 36.6916 36.0216 37.3773 36.2569 37.5378C36.3766 37.618 36.552 37.6942 36.6889 37.7222C36.9199 37.7663 37.6471 37.7623 37.6985 37.7102C37.7156 37.6982 37.6044 37.5257 37.4504 37.3292C37.2493 37.0685 37.1723 36.9282 37.1509 36.8038C37.1381 36.7076 37.121 36.6234 37.1124 36.6154C37.0825 36.5873 35.4526 36.5472 35.4526 36.5712Z" fill="black"/>
<defs>
<filter id="filter0_d_16_13" x="0" y="0" width="59" height="59" filterUnits="userSpaceOnUse" color-interpolation-filters="sRGB">
<feFlood flood-opacity="0" result="BackgroundImageFix"/>
<feColorMatrix in="SourceAlpha" type="matrix" values="0 0 0 0 0 0 0 0 0 0 0 0 0 0 0 0 0 0 127 0" result="hardAlpha"/>
<feMorphology radius="1" operator="dilate" in="SourceAlpha" result="effect1_dropShadow_16_13"/>
<feOffset dx="1" dy="1"/>
<feGaussianBlur stdDeviation="0.5"/>
<feComposite in2="hardAlpha" operator="out"/>
<feColorMatrix type="matrix" values="0 0 0 0 0 0 0 0 0 0 0 0 0 0 0 0 0 0 0.25 0"/>
<feBlend mode="normal" in2="BackgroundImageFix" result="effect1_dropShadow_16_13"/>
<feBlend mode="normal" in="SourceGraphic" in2="effect1_dropShadow_16_13" result="shape"/>
</filter>
</defs>
</svg>
